<svg width="592" height="371" viewBox="0 0 592 371" fill="none" xmlns="http://www.w3.org/2000/svg">
<g clip-path="url(#clip0_5743_15013)">
<path d="M522.674 175.739C532.424 179.121 541.063 183.295 549.093 188.688C576.064 206.816 589.351 232.327 590.376 264.584C591.168 289.651 584.297 312.176 567.937 331.368C553.616 348.182 534.879 357.913 513.774 363.334C499.327 367.045 484.639 368.987 469.67 368.968C421.382 368.891 373.094 368.968 324.806 368.891C307.74 368.862 293.352 362.774 282.809 348.984C276.547 340.789 273.745 331.261 273.745 321.047C273.696 230.327 273.532 139.607 273.87 48.8872C273.977 20.3125 294.598 1.80712 321.588 1.23698C370.466 0.21266 419.391 0.396277 468.279 1.15969C494.428 1.56555 519.437 7.87575 540.377 24.835C564.197 44.1232 575.02 69.2866 573.165 99.9679C571.097 134.128 553.964 158.238 524.317 174.202C523.94 174.405 523.659 174.801 522.664 175.729L522.674 175.739ZM404.403 301.517V301.498C412.985 301.498 421.566 301.537 430.137 301.488C438.863 301.44 447.57 301.711 456.286 300.696C477.352 298.242 497.066 286.829 498.535 261.868C499.462 246.214 495.307 232.472 481.227 223.283C469.544 215.658 456.286 213.996 442.941 213.783C415.526 213.358 388.101 213.696 360.677 213.6C357.188 213.59 355.797 214.595 355.816 218.306C355.941 244.339 355.961 270.372 355.816 296.415C355.797 300.551 357.294 301.643 361.189 301.595C375.587 301.421 389.986 301.527 404.394 301.527L404.403 301.517ZM403.746 68.2913C389.502 68.2913 375.259 68.4073 361.015 68.214C356.927 68.156 355.777 69.6249 355.806 73.5675C355.951 95.6097 355.97 117.662 355.768 139.713C355.729 144.197 357.275 145.483 361.595 145.454C386.41 145.309 411.216 145.367 436.032 145.396C441.24 145.396 446.41 145.125 451.599 144.439C471.139 141.849 483.228 129.982 485.876 110.549C488.514 91.1452 478.531 75.6645 460.036 70.7072C454.267 69.161 448.372 68.2333 442.342 68.272C429.48 68.3493 416.608 68.2913 403.746 68.3106V68.2913Z" fill="#2563EB"/>
<path d="M137.452 229.361C137.452 196.128 137.414 162.886 137.462 129.654C137.491 107.563 153.001 92.0244 175.062 91.8891C183.798 91.8312 192.524 91.8505 201.26 91.8891C223.138 91.9858 239.643 107.959 239.701 129.77C239.855 196.244 239.875 262.719 239.701 329.184C239.643 352.134 222.519 368.775 199.675 368.9C192.166 368.939 184.658 368.939 177.149 368.881C154.044 368.707 137.462 352.105 137.443 329.068C137.414 295.835 137.443 262.593 137.443 229.361H137.462H137.452Z" fill="#2563EB"/>
<path d="M0.657043 265.328C0.657043 244.648 0.618399 223.968 0.666716 203.289C0.695706 191.287 4.28082 180.715 13.4514 172.453C19.8679 166.674 27.5406 163.543 35.9575 163.137C47.4086 162.577 58.9467 161.929 70.3688 163.543C90.5363 166.394 103.476 181.266 103.514 201.791C103.543 217.252 103.108 232.743 103.282 248.175C103.582 274.672 103.389 301.169 103.543 327.657C103.669 348.636 90.6619 365.16 70.7457 368.079C57.6035 370.011 44.0747 370.127 30.9228 367.731C13.7123 364.6 0.744024 347.505 0.637727 328.749C0.512102 307.605 0.608738 286.471 0.608738 265.328H0.657043Z" fill="#2563EB"/>
</g>
<defs>
<clipPath id="clip0_5743_15013">
<rect width="591.4" height="370.108" fill="white"/>
</clipPath>
</defs>
</svg>
